<?xml version="1.0" encoding="utf-8"?>
<!-- Generator: Adobe Illustrator 16.0.0, SVG Export Plug-In . SVG Version: 6.00 Build 0)  -->
<!DOCTYPE svg PUBLIC "-//W3C//DTD SVG 1.1//EN" "http://www.w3.org/Graphics/SVG/1.1/DTD/svg11.dtd">
<svg version="1.1" xmlns="http://www.w3.org/2000/svg" xmlns:xlink="http://www.w3.org/1999/xlink" x="0px" y="0px" width="100px"
	 height="100px" viewBox="0 0 100 100" enable-background="new 0 0 100 100" xml:space="preserve">
<g id="Calque_4">
</g>
<g id="draw">
</g>
<g id="back">
</g>
<g id="component">
</g>
<g id="leaves">
</g>
<g id="plant">
</g>
<g id="informations">
</g>
<g id="Calque_5">
</g>
<g id="logo">
</g>
<g id="log_in">
	<path fill="#5CBE99" d="M82.781,54.155H17.22c-2.715,0-4.917-1.096-4.917-2.448c0-1.353,2.202-2.448,4.917-2.448h65.562
		c2.714,0,4.916,1.095,4.916,2.448C87.697,53.059,85.495,54.155,82.781,54.155z"/>
	<path fill="#11514F" d="M82.781,52.767H17.22c-2.715,0-4.917-1.096-4.917-2.448c0-1.353,2.202-2.448,4.917-2.448h65.562
		c2.714,0,4.916,1.095,4.916,2.448C87.697,51.671,85.495,52.767,82.781,52.767z"/>
</g>
</svg>
