<?xml version="1.0" encoding="utf-8"?>
<!-- Generator: Adobe Illustrator 16.0.0, SVG Export Plug-In . SVG Version: 6.00 Build 0)  -->
<!DOCTYPE svg PUBLIC "-//W3C//DTD SVG 1.1//EN" "http://www.w3.org/Graphics/SVG/1.1/DTD/svg11.dtd">
<svg version="1.1" xmlns="http://www.w3.org/2000/svg" xmlns:xlink="http://www.w3.org/1999/xlink" x="0px" y="0px" width="100px"
	 height="100px" viewBox="0 0 100 100" enable-background="new 0 0 100 100" xml:space="preserve">
<g id="Calque_4">
</g>
<g id="draw">
</g>
<g id="back">
</g>
<g id="component">
</g>
<g id="leaves">
</g>
<g id="plant">
</g>
<g id="informations">
</g>
<g id="Calque_5">
</g>
<g id="logo">
</g>
<g id="log_in">
	<g>
		<path fill-rule="evenodd" clip-rule="evenodd" fill="#126864" d="M70.942,5.662c0,4.998-0.005,9.866,0.007,14.733
			c0.001,0.558-0.287,0.641-0.747,0.637c-1.604-0.014-3.212-0.07-4.812,0.012c-1.854,0.095-3.709,0.258-5.547,0.51
			c-1.235,0.169-2.369,1.497-2.401,2.734c-0.088,3.394-0.117,6.789-0.167,10.183c-0.001,0.05,0.035,0.1,0.079,0.217
			c4.524,0,9.072,0,13.692,0c-0.547,5.209-1.086,10.345-1.631,15.532c-4.041,0-8.03,0-12.108,0c0,14.816,0,29.574,0,44.393
			c-5.67,0-11.251,0-16.922,0c0-14.761,0-29.519,0-44.339c-3.681,0-7.272,0-10.991,0c0-0.358,0-0.653,0-0.949
			c0-3.94,0.006-7.88-0.007-11.821c-0.001-0.494-0.087-0.99-0.157-1.482c-0.113-0.812,0.298-1.306,1.116-1.306
			c2.87-0.001,5.741,0,8.612,0c1.486,0,1.522-0.03,1.582-1.525c0.018-0.45,0.003-0.901,0.003-1.351c0-3.18-0.05-6.362,0.013-9.541
			c0.065-3.318,0.675-6.523,2.233-9.511C44.486,9.54,47.171,7.6,50.653,6.68c2.971-0.784,5.984-1.128,9.07-1.04
			c3.403,0.097,6.811,0.022,10.216,0.022C70.243,5.662,70.546,5.662,70.942,5.662z"/>
	</g>
</g>
</svg>
