<?xml version="1.0" encoding="utf-8"?>
<!-- Generator: Adobe Illustrator 16.0.0, SVG Export Plug-In . SVG Version: 6.00 Build 0)  -->
<!DOCTYPE svg PUBLIC "-//W3C//DTD SVG 1.1//EN" "http://www.w3.org/Graphics/SVG/1.1/DTD/svg11.dtd">
<svg version="1.1" xmlns="http://www.w3.org/2000/svg" xmlns:xlink="http://www.w3.org/1999/xlink" x="0px" y="0px" width="100px"
	 height="100px" viewBox="0 0 100 100" enable-background="new 0 0 100 100" xml:space="preserve">
<g id="Calque_4">
</g>
<g id="draw">
</g>
<g id="back">
</g>
<g id="component">
</g>
<g id="leaves">
</g>
<g id="plant">
</g>
<g id="informations">
</g>
<g id="Calque_5">
</g>
<g id="logo">
</g>
<g id="log_in">
	<g>
		<path fill-rule="evenodd" clip-rule="evenodd" fill="#EB4535" d="M53.832,10.115c0.924,0.335,1.907,0.288,2.86,0.424
			c7.673,1.095,14.369,4.261,20.16,9.393c0.457,0.405,0.478,0.608,0.027,1.042c-3.409,3.293-6.793,6.613-10.178,9.931
			c-0.297,0.291-0.483,0.504-0.924,0.106c-8.091-7.305-21.008-7.374-29.697-0.294c-3.665,2.985-6.247,6.725-7.804,11.181
			c-0.299,0.099-0.491-0.105-0.691-0.258c-3.988-3.044-7.939-6.136-11.891-9.229c-0.142-0.111-0.292-0.217-0.346-0.406
			c0.163-0.949,0.756-1.697,1.225-2.49c1.91-3.229,4.205-6.167,6.952-8.722c4.505-4.19,9.663-7.281,15.575-9.074
			c2.837-0.861,5.708-1.493,8.688-1.531c0.049-0.001,0.093-0.034,0.132-0.072c0.415,0,0.83,0,1.245,0
			c0.322,0.163,0.668,0.042,1.002,0.081c0.65-0.04,1.308,0.087,1.953-0.081c0.311,0,0.622,0,0.934,0
			c0.104,0.098,0.207,0.098,0.311,0C53.521,10.115,53.677,10.115,53.832,10.115z"/>
		<path fill-rule="evenodd" clip-rule="evenodd" fill="#547CBB" d="M64.685,70.162c2.091-1.602,3.937-3.431,5.341-5.683
			c1.216-1.951,2.107-4.028,2.562-6.288c0.179-0.89,0.162-0.919-0.737-0.919c-6.71-0.001-13.421-0.011-20.131,0.015
			c-0.667,0.003-0.869-0.14-0.863-0.843c0.036-4.378,0.029-8.757,0.004-13.136c-0.003-0.588,0.162-0.73,0.738-0.729
			c11.944,0.017,23.888,0.017,35.832-0.001c0.563,0,0.743,0.176,0.845,0.712c0.236,1.247,0.411,2.5,0.549,3.76
			c0.021,0.189-0.085,0.426,0.161,0.553c0,0.363,0,0.726,0,1.089c-0.162,0.326-0.042,0.675-0.08,1.011c0,0.574,0,1.148,0,1.722
			c0.044,0.384-0.093,0.78,0.08,1.156c0,0.466,0,0.933,0,1.399c-0.198,1.377-0.189,2.772-0.414,4.15
			c-1.174,7.192-3.918,13.665-8.725,19.205c-0.796,0.917-1.544,1.881-2.583,2.551c-0.375,0.056-0.637-0.172-0.9-0.376
			c-3.757-2.916-7.52-5.824-11.28-8.734C64.882,70.62,64.646,70.477,64.685,70.162z"/>
		<path fill-rule="evenodd" clip-rule="evenodd" fill="#F8BC32" d="M15.451,67.548c-1.771-3.389-2.918-6.989-3.607-10.74
			c-0.196-1.065-0.309-2.146-0.462-3.218c-0.021-0.144,0.028-0.321-0.17-0.387c0-0.415,0-0.83,0-1.245
			c0.128-0.311,0.128-0.622,0-0.933c0-0.57,0-1.141,0-1.711c0.128-0.312,0.128-0.622,0-0.934c0-0.259,0-0.519,0-0.777
			c0.117-0.156,0.117-0.312,0-0.467c0-0.259,0-0.519,0-0.778c0.162-2.237,0.512-4.443,1.083-6.613
			c0.633-2.402,1.513-4.716,2.532-6.978c0.134-0.297,0.24-0.64,0.619-0.743c3.697,2.862,7.394,5.726,11.093,8.584
			c0.57,0.441,1.158,0.859,1.738,1.289c-1.716,5.268-1.707,10.533,0.016,15.797c-0.303,0.613-0.919,0.895-1.418,1.28
			c-3.479,2.68-6.938,5.385-10.42,8.06C16.158,67.263,15.896,67.593,15.451,67.548z"/>
		<path fill-rule="evenodd" clip-rule="evenodd" fill="#EE694C" d="M52.121,10.115c-0.655,0.34-1.354,0.078-2.028,0.145
			c-0.047-0.034-0.062-0.067-0.044-0.099c0.017-0.03,0.033-0.046,0.05-0.046C50.773,10.115,51.447,10.115,52.121,10.115z"/>
		<path fill-rule="evenodd" clip-rule="evenodd" fill="#7D95CA" d="M88.843,51.496c0-0.626,0-1.252,0.001-1.877
			c0.05-0.064,0.097-0.062,0.142,0.005c0,0.622,0,1.245,0,1.867C88.94,51.56,88.893,51.562,88.843,51.496z"/>
		<path fill-rule="evenodd" clip-rule="evenodd" fill="#8DA1D0" d="M88.843,51.496c0.048-0.002,0.095-0.004,0.143-0.005
			c0,0.363,0,0.726,0,1.089C88.678,52.253,88.891,51.857,88.843,51.496z"/>
		<path fill-rule="evenodd" clip-rule="evenodd" fill="#F07A5C" d="M50.099,10.115c0,0.048-0.002,0.097-0.006,0.145
			c-0.311-0.043-0.657,0.154-0.927-0.145C49.477,10.115,49.788,10.115,50.099,10.115z"/>
		<path fill-rule="evenodd" clip-rule="evenodd" fill="#F6C042" d="M11.212,48.38c0.239,0.312,0.234,0.622,0,0.934
			C11.212,49.002,11.212,48.691,11.212,48.38z"/>
		<path fill-rule="evenodd" clip-rule="evenodd" fill="#8EA2D1" d="M88.985,49.625c-0.047-0.001-0.095-0.003-0.142-0.005
			c0.039-0.311-0.155-0.657,0.142-0.928C88.985,49.002,88.985,49.313,88.985,49.625z"/>
		<path fill-rule="evenodd" clip-rule="evenodd" fill="#F9C960" d="M11.212,51.024c0.222,0.311,0.253,0.622,0,0.933
			C11.212,51.646,11.212,51.335,11.212,51.024z"/>
		<path fill-rule="evenodd" clip-rule="evenodd" fill="#FCD993" d="M11.212,47.136c0.233,0.155,0.196,0.311,0,0.467
			C11.212,47.447,11.212,47.291,11.212,47.136z"/>
		<path fill-rule="evenodd" clip-rule="evenodd" fill="#F7AC91" d="M53.365,10.115c-0.104,0.21-0.207,0.184-0.311,0
			C53.158,10.115,53.262,10.115,53.365,10.115z"/>
		<path fill-rule="evenodd" clip-rule="evenodd" fill="#35A952" d="M15.451,67.548c3.62-2.79,7.239-5.581,10.861-8.369
			c0.653-0.503,1.319-0.991,1.98-1.485c1.021,2.788,2.358,5.406,4.285,7.685c4.967,5.871,11.279,8.83,18.996,8.723
			c4.745-0.066,9.137-1.306,13.11-3.94c2.153,1.692,4.303,3.39,6.462,5.074c1.979,1.542,3.968,3.07,5.952,4.604
			c-3.704,3.52-8.015,6.074-12.879,7.538c-14.04,4.227-27.022,2.236-38.604-7.041C21.276,76.861,17.904,72.554,15.451,67.548z"/>
	</g>
</g>
</svg>
